<?xml version="1.0" encoding="UTF-8" standalone="no"?>
<!DOCTYPE svg PUBLIC "-//W3C//DTD SVG 1.1//EN" "http://www.w3.org/Graphics/SVG/1.1/DTD/svg11.dtd">
<svg width="100%" height="100%" viewBox="0 0 154 154" version="1.1" xmlns="http://www.w3.org/2000/svg" xmlns:xlink="http://www.w3.org/1999/xlink" xml:space="preserve" xmlns:serif="http://www.serif.com/" style="fill-rule:evenodd;clip-rule:evenodd;stroke-linecap:round;stroke-linejoin:round;stroke-miterlimit:1.5;">
    <g transform="matrix(1,0,0,1,-163,-217)">
        <g>
            <g transform="matrix(0.986086,0,0,0.986086,3.29171,3.99221)">
                <circle cx="222.809" cy="253.518" r="16.226" style="fill:rgb(168,85,247);"/>
            </g>
            <g transform="matrix(1.60239,0,0,1.60239,-134.026,-152.252)">
                <circle cx="222.809" cy="253.518" r="16.226" style="fill:none;stroke:rgb(168,85,247);stroke-width:4.37px;"/>
            </g>
        </g>
        <g transform="matrix(1,0,0,1,63.6523,41.7032)">
            <g transform="matrix(0.986086,0,0,0.986086,3.29171,3.99221)">
                <circle cx="222.809" cy="253.518" r="16.226" style="fill:rgb(20,184,166);"/>
            </g>
            <g transform="matrix(1.60239,0,0,1.60239,-134.026,-152.252)">
                <circle cx="222.809" cy="253.518" r="16.226" style="fill:none;stroke:rgb(20,184,166);stroke-width:4.37px;"/>
            </g>
        </g>
        <g transform="matrix(1,0,0,1,-28.0948,52.2388)">
            <g transform="matrix(0.986086,0,0,0.986086,3.29171,3.99221)">
                <circle cx="222.809" cy="253.518" r="16.226" style="fill:rgb(239,68,68);"/>
            </g>
            <g transform="matrix(1.60239,0,0,1.60239,-134.026,-152.252)">
                <circle cx="222.809" cy="253.518" r="16.226" style="fill:none;stroke:rgb(239,68,68);stroke-width:4.37px;"/>
            </g>
        </g>
        <g id="u1f446.svg" transform="matrix(1,0,0,1,235.542,305.828)">
            <g transform="matrix(1,0,0,1,-64,-64)">
                <path d="M54.45,122.01C53.3,122 52.31,121.2 52.05,120.08L51.75,118.79C50.27,112.42 46.55,106.75 41,102.37C39.81,101.43 38.79,100.31 37.96,99.04C33.52,92.19 31.07,86.17 28.71,80.35C26.48,74.84 24.37,69.64 20.78,64.27C19.98,63.07 19.4,59.77 20.28,57.13C20.84,55.43 21.9,54.29 23.42,53.76C24.64,53.33 25.75,53.12 26.81,53.12C30.58,53.12 33.88,55.93 37.52,62.24C41.41,68.97 41.65,70.74 41.66,70.81C41.69,71.62 42.35,72.24 43.16,72.24L43.18,72.24C44,72.23 44.65,71.54 44.66,70.72L44.78,13.65C44.78,11.57 46.04,5.66 51.63,5.66C58.21,5.66 60.42,11.39 60.42,14L60.38,33.58C60.38,34.05 60.6,34.5 60.98,34.79C61.24,34.99 61.56,35.09 61.88,35.09C62.02,35.09 62.17,35.07 62.31,35.03C63.73,34.6 65.1,34.39 66.37,34.39C70.17,34.39 72.63,36.34 74.02,37.98C75.12,39.27 76.73,40 78.44,40C79.06,40 79.67,39.9 80.25,39.71C80.98,39.47 81.76,39.35 82.57,39.35C83.86,39.35 85.25,39.66 86.67,40.27C88.56,41.08 89.96,42.51 90.81,43.58C91.71,44.71 93.56,46.61 95.81,46.61C96.15,46.61 96.48,46.57 96.8,46.48C97.28,46.35 97.85,46.28 98.45,46.28C101.18,46.28 104.76,47.64 106.58,51.46C108.23,54.9 108.19,73.94 108.17,80.19C108.13,96.65 96.79,120.08 96.68,120.32C96.64,120.4 96.61,120.48 96.58,120.57C96.28,121.64 95.29,122.39 94.18,122.39L54.45,122.01Z" style="fill:url(#_Linear1);fill-rule:nonzero;"/>
                <path d="M51.62,7.14C57.61,7.14 58.91,12.62 58.91,13.97L58.87,33.56C58.87,34.51 59.32,35.4 60.08,35.97C60.6,36.36 61.23,36.56 61.87,36.56C62.16,36.56 62.45,36.52 62.73,36.43C64.01,36.04 65.23,35.85 66.36,35.85C68.95,35.85 71.14,36.88 72.87,38.91C74.25,40.53 76.28,41.46 78.43,41.46C79.21,41.46 79.97,41.34 80.71,41.1C81.29,40.91 81.91,40.81 82.57,40.81C83.66,40.81 84.84,41.08 86.08,41.61C87.68,42.29 88.89,43.54 89.63,44.47C90.7,45.81 92.92,48.06 95.8,48.06C96.27,48.06 96.74,48 97.19,47.87C97.53,47.78 97.98,47.72 98.45,47.72C100.73,47.72 103.7,48.86 105.23,52.05C105.91,53.48 106.72,59.51 106.68,80.13C106.65,96.23 95.45,119.37 95.34,119.6C95.26,119.76 95.2,119.93 95.15,120.1C95.03,120.53 94.63,120.83 94.17,120.83L54.48,120.48C54.02,120.47 53.62,120.16 53.52,119.71L53.22,118.42C51.66,111.72 47.76,105.75 41.93,101.17C40.87,100.33 39.96,99.33 39.22,98.2C34.85,91.47 32.44,85.52 30.1,79.76C27.84,74.18 25.7,68.91 22.03,63.41C21.58,62.73 20.92,59.93 21.71,57.57C22.27,55.9 23.24,55.38 23.93,55.14C24.99,54.76 25.93,54.58 26.82,54.58C28.95,54.58 31.95,55.53 36.23,62.95C39.5,68.62 40.09,70.6 40.17,70.95C40.29,72.45 41.51,73.64 43.04,73.71L43.16,73.71C44.72,73.71 46.03,72.51 46.15,70.95C46.16,70.87 46.16,70.78 46.16,70.69L46.28,13.62C46.27,13.57 46.5,7.14 51.62,7.14M51.62,4.14C45.28,4.14 43.27,10.48 43.27,13.63L43.15,70.7L43.15,70.73L43.15,70.7C43.14,70.46 42.94,68.61 38.82,61.47C34.96,54.78 31.25,51.6 26.81,51.6C25.58,51.6 24.28,51.85 22.92,52.33C17.16,54.38 17.86,62.58 19.53,65.09C26.79,75.97 27.96,86.39 36.7,99.85C37.71,101.4 38.88,102.6 40.07,103.54C45.1,107.5 48.84,112.88 50.29,119.12L50.59,120.41C51.01,122.2 52.6,123.48 54.44,123.5L94.13,123.85L94.17,123.85C95.96,123.85 97.53,122.66 98.02,120.94C98.02,120.94 109.63,97.15 109.66,80.16C109.68,68.61 109.52,54.12 107.92,50.78C105.76,46.26 101.55,44.75 98.43,44.75C97.67,44.75 96.97,44.84 96.38,45C96.18,45.05 95.98,45.08 95.78,45.08C94.34,45.08 92.88,43.78 91.96,42.62C90.91,41.3 89.34,39.77 87.24,38.87C85.46,38.11 83.89,37.83 82.55,37.83C81.47,37.83 80.54,38.01 79.76,38.26C79.32,38.4 78.87,38.47 78.41,38.47C77.17,38.47 75.96,37.94 75.13,36.97C73.49,35.04 70.67,32.86 66.34,32.86C64.99,32.86 63.5,33.07 61.85,33.57L61.89,13.98C61.91,10.82 59.28,4.14 51.62,4.14Z" style="fill:rgb(237,166,0);fill-rule:nonzero;"/>
                <path d="M59.36,53.71L58.9,32.54L61.35,34.24C61.94,34.24 62.39,35.01 62.32,35.89L61.55,53.73C61.41,55.51 59.45,55.49 59.36,53.71Z" style="fill:rgb(237,166,0);fill-rule:nonzero;"/>
                <path d="M43.2,78.73L40.39,71.76L39.45,69.29L42.77,70.16L46,71.1L45.91,78.58C45.92,79.96 43.76,79.82 43.2,78.73Z" style="fill:rgb(237,166,0);fill-rule:nonzero;"/>
                <path d="M76.47,54.11L75.7,41.04C75.65,40.45 78.22,40.79 78.22,40.79C78.81,40.79 79.26,41.32 79.19,41.92L78.42,54.15C78.29,55.36 76.57,55.33 76.47,54.11Z" style="fill:rgb(237,166,0);fill-rule:nonzero;"/>
                <path d="M93.1,53.88L92.33,46.84C92.28,46.52 94.85,46.71 94.85,46.71C95.44,46.71 95.89,46.99 95.82,47.32L95.05,53.9C94.91,54.55 93.19,54.53 93.1,53.88Z" style="fill:rgb(237,166,0);fill-rule:nonzero;"/>
            </g>
        </g>
    </g>
    <defs>
        <linearGradient id="_Linear1" x1="0" y1="0" x2="1" y2="0" gradientUnits="userSpaceOnUse" gradientTransform="matrix(-0.244277,116.6,-116.6,-0.244277,64.2201,5.67264)"><stop offset="0" style="stop-color:rgb(255,202,40);stop-opacity:1"/><stop offset="0.35" style="stop-color:rgb(255,202,40);stop-opacity:1"/><stop offset="0.87" style="stop-color:rgb(255,179,0);stop-opacity:1"/><stop offset="1" style="stop-color:rgb(255,179,0);stop-opacity:1"/></linearGradient>
    </defs>
</svg>
